<mxfile host="Electron" agent="Mozilla/5.0 (X11; Linux x86_64) AppleWebKit/537.36 (KHTML, like Gecko) draw.io/24.7.17 Chrome/128.0.6613.36 Electron/32.0.1 Safari/537.36" version="24.7.17">
  <diagram name="Page-1" id="li09qqb5fwVE3tS7wrpL">
    <mxGraphModel dx="1368" dy="835" grid="1" gridSize="10" guides="1" tooltips="1" connect="1" arrows="1" fold="1" page="1" pageScale="1" pageWidth="850" pageHeight="1100" math="0" shadow="0">
      <root>
        <mxCell id="0" />
        <mxCell id="1" parent="0" />
        <mxCell id="urL8BZHNpoyfXsBZfCev-18" value="" style="group" parent="1" vertex="1" connectable="0">
          <mxGeometry x="240" y="40" width="370" height="560" as="geometry" />
        </mxCell>
        <mxCell id="urL8BZHNpoyfXsBZfCev-15" value="" style="rounded=1;whiteSpace=wrap;html=1;" parent="urL8BZHNpoyfXsBZfCev-18" vertex="1">
          <mxGeometry width="370" height="560" as="geometry" />
        </mxCell>
        <mxCell id="urL8BZHNpoyfXsBZfCev-17" value="" style="rounded=0;whiteSpace=wrap;html=1;" parent="urL8BZHNpoyfXsBZfCev-18" vertex="1">
          <mxGeometry x="20" y="40" width="330" height="480" as="geometry" />
        </mxCell>
        <mxCell id="urL8BZHNpoyfXsBZfCev-19" value="" style="rounded=1;whiteSpace=wrap;html=1;" parent="urL8BZHNpoyfXsBZfCev-18" vertex="1">
          <mxGeometry x="30" y="200" width="310" height="130" as="geometry" />
        </mxCell>
        <mxCell id="urL8BZHNpoyfXsBZfCev-21" value="Ноябрь" style="rounded=1;whiteSpace=wrap;html=1;fillColor=#999999;" parent="urL8BZHNpoyfXsBZfCev-18" vertex="1">
          <mxGeometry x="200" y="244" width="120" height="60" as="geometry" />
        </mxCell>
        <mxCell id="urL8BZHNpoyfXsBZfCev-22" value="&lt;font style=&quot;font-size: 14px;&quot;&gt;Кэшбэк&lt;/font&gt;" style="text;html=1;align=center;verticalAlign=middle;whiteSpace=wrap;rounded=0;" parent="urL8BZHNpoyfXsBZfCev-18" vertex="1">
          <mxGeometry x="150" y="210" width="60" height="30" as="geometry" />
        </mxCell>
        <mxCell id="_k14NOsf7yQXFgDvM924-61" value="" style="triangle;whiteSpace=wrap;html=1;rotation=-180;" parent="urL8BZHNpoyfXsBZfCev-18" vertex="1">
          <mxGeometry x="300" y="530" width="20" height="20" as="geometry" />
        </mxCell>
        <mxCell id="OY-_izu9chUP1zv7eODz-16" value="&lt;font style=&quot;font-size: 8px;&quot;&gt;Откроется 20.11.2024&lt;/font&gt;" style="rounded=1;whiteSpace=wrap;html=1;fillColor=#FF0080;" parent="urL8BZHNpoyfXsBZfCev-18" vertex="1">
          <mxGeometry x="230" y="244" width="90" height="10" as="geometry" />
        </mxCell>
        <mxCell id="71cIT_W7Prt0eCM6huFr-1" value="" style="rounded=0;whiteSpace=wrap;html=1;" parent="urL8BZHNpoyfXsBZfCev-18" vertex="1">
          <mxGeometry x="20" y="490" width="330" height="30" as="geometry" />
        </mxCell>
        <mxCell id="71cIT_W7Prt0eCM6huFr-2" value="&lt;font size=&quot;3&quot;&gt;%&lt;/font&gt;" style="ellipse;whiteSpace=wrap;html=1;aspect=fixed;" parent="urL8BZHNpoyfXsBZfCev-18" vertex="1">
          <mxGeometry x="160" y="490" width="30" height="30" as="geometry" />
        </mxCell>
        <mxCell id="_k14NOsf7yQXFgDvM924-51" value="&lt;font size=&quot;3&quot;&gt;1&lt;/font&gt;" style="ellipse;whiteSpace=wrap;html=1;aspect=fixed;" parent="1" vertex="1">
          <mxGeometry x="200" y="39" width="40" height="40" as="geometry" />
        </mxCell>
        <mxCell id="_k14NOsf7yQXFgDvM924-62" value="&lt;font style=&quot;font-size: 14px;&quot;&gt;Выход из банка на главную страницу Озон&lt;/font&gt;" style="rounded=1;whiteSpace=wrap;html=1;dashed=1;" parent="1" vertex="1">
          <mxGeometry x="490" y="630" width="120" height="60" as="geometry" />
        </mxCell>
        <mxCell id="_k14NOsf7yQXFgDvM924-63" value="" style="edgeStyle=orthogonalEdgeStyle;rounded=0;orthogonalLoop=1;jettySize=auto;html=1;strokeColor=#FF0000;" parent="1" source="_k14NOsf7yQXFgDvM924-61" target="_k14NOsf7yQXFgDvM924-62" edge="1">
          <mxGeometry relative="1" as="geometry" />
        </mxCell>
        <mxCell id="N-lE7uRC2UTWvSIOL3Zv-2" value="&lt;font style=&quot;font-size: 14px;&quot;&gt;1 -&amp;gt; Главная страница раздела &quot;Бонусы&quot; - до 20го числа текущего месяца&lt;/font&gt;" style="text;html=1;align=center;verticalAlign=middle;whiteSpace=wrap;rounded=0;" parent="1" vertex="1">
          <mxGeometry x="58" y="40" width="130" height="90" as="geometry" />
        </mxCell>
        <mxCell id="OY-_izu9chUP1zv7eODz-3" value="" style="group" parent="1" vertex="1" connectable="0">
          <mxGeometry x="1002" y="41" width="370" height="560" as="geometry" />
        </mxCell>
        <mxCell id="OY-_izu9chUP1zv7eODz-4" value="" style="rounded=1;whiteSpace=wrap;html=1;" parent="OY-_izu9chUP1zv7eODz-3" vertex="1">
          <mxGeometry width="370" height="560" as="geometry" />
        </mxCell>
        <mxCell id="OY-_izu9chUP1zv7eODz-5" value="" style="rounded=0;whiteSpace=wrap;html=1;" parent="OY-_izu9chUP1zv7eODz-3" vertex="1">
          <mxGeometry x="20" y="40" width="330" height="480" as="geometry" />
        </mxCell>
        <mxCell id="OY-_izu9chUP1zv7eODz-6" value="" style="rounded=1;whiteSpace=wrap;html=1;" parent="OY-_izu9chUP1zv7eODz-3" vertex="1">
          <mxGeometry x="30" y="200" width="310" height="130" as="geometry" />
        </mxCell>
        <mxCell id="OY-_izu9chUP1zv7eODz-7" value="Ноябрь" style="rounded=1;whiteSpace=wrap;html=1;" parent="OY-_izu9chUP1zv7eODz-3" vertex="1">
          <mxGeometry x="200" y="244" width="120" height="60" as="geometry" />
        </mxCell>
        <mxCell id="OY-_izu9chUP1zv7eODz-8" value="&lt;font style=&quot;font-size: 14px;&quot;&gt;Кэшбэк&lt;/font&gt;" style="text;html=1;align=center;verticalAlign=middle;whiteSpace=wrap;rounded=0;" parent="OY-_izu9chUP1zv7eODz-3" vertex="1">
          <mxGeometry x="150" y="210" width="60" height="30" as="geometry" />
        </mxCell>
        <mxCell id="OY-_izu9chUP1zv7eODz-9" value="" style="triangle;whiteSpace=wrap;html=1;rotation=-180;" parent="OY-_izu9chUP1zv7eODz-3" vertex="1">
          <mxGeometry x="300" y="530" width="20" height="20" as="geometry" />
        </mxCell>
        <mxCell id="OY-_izu9chUP1zv7eODz-21" value="" style="ellipse;whiteSpace=wrap;html=1;aspect=fixed;fillColor=#FFD966;" parent="OY-_izu9chUP1zv7eODz-3" vertex="1">
          <mxGeometry x="300" y="249" width="10" height="10" as="geometry" />
        </mxCell>
        <mxCell id="71cIT_W7Prt0eCM6huFr-3" value="" style="rounded=0;whiteSpace=wrap;html=1;" parent="OY-_izu9chUP1zv7eODz-3" vertex="1">
          <mxGeometry x="20" y="490" width="330" height="30" as="geometry" />
        </mxCell>
        <mxCell id="71cIT_W7Prt0eCM6huFr-4" value="&lt;font size=&quot;3&quot;&gt;%&lt;/font&gt;" style="ellipse;whiteSpace=wrap;html=1;aspect=fixed;" parent="OY-_izu9chUP1zv7eODz-3" vertex="1">
          <mxGeometry x="160" y="490" width="30" height="30" as="geometry" />
        </mxCell>
        <mxCell id="OY-_izu9chUP1zv7eODz-11" value="&lt;font size=&quot;3&quot;&gt;2&lt;/font&gt;" style="ellipse;whiteSpace=wrap;html=1;aspect=fixed;" parent="1" vertex="1">
          <mxGeometry x="962" y="40" width="40" height="40" as="geometry" />
        </mxCell>
        <mxCell id="OY-_izu9chUP1zv7eODz-12" value="&lt;font style=&quot;font-size: 14px;&quot;&gt;Выход из банка на главную страницу Озон&lt;/font&gt;" style="rounded=1;whiteSpace=wrap;html=1;dashed=1;" parent="1" vertex="1">
          <mxGeometry x="1252" y="631" width="120" height="60" as="geometry" />
        </mxCell>
        <mxCell id="OY-_izu9chUP1zv7eODz-13" value="" style="edgeStyle=orthogonalEdgeStyle;rounded=0;orthogonalLoop=1;jettySize=auto;html=1;strokeColor=#FF0000;" parent="1" source="OY-_izu9chUP1zv7eODz-9" target="OY-_izu9chUP1zv7eODz-12" edge="1">
          <mxGeometry relative="1" as="geometry" />
        </mxCell>
        <mxCell id="OY-_izu9chUP1zv7eODz-14" value="&lt;font style=&quot;font-size: 14px;&quot;&gt;2 -&amp;gt; Главная страница раздела &quot;Бонусы&quot; - с 20го числа текущего месяца&lt;/font&gt;" style="text;html=1;align=center;verticalAlign=middle;whiteSpace=wrap;rounded=0;" parent="1" vertex="1">
          <mxGeometry x="820" y="41" width="130" height="79" as="geometry" />
        </mxCell>
        <mxCell id="OY-_izu9chUP1zv7eODz-17" value="&lt;font style=&quot;font-size: 14px;&quot;&gt;Плашка с пояснением когда будут доступны выборы категорий на следующий месяц&lt;/font&gt;" style="whiteSpace=wrap;html=1;fillColor=#FFFFFF;rounded=1;dashed=1;" parent="1" vertex="1">
          <mxGeometry x="650" y="420" width="120" height="120" as="geometry" />
        </mxCell>
        <mxCell id="OY-_izu9chUP1zv7eODz-18" value="" style="edgeStyle=orthogonalEdgeStyle;rounded=0;orthogonalLoop=1;jettySize=auto;html=1;" parent="1" source="OY-_izu9chUP1zv7eODz-16" target="OY-_izu9chUP1zv7eODz-17" edge="1">
          <mxGeometry relative="1" as="geometry" />
        </mxCell>
        <mxCell id="OY-_izu9chUP1zv7eODz-20" value="" style="shape=singleArrow;whiteSpace=wrap;html=1;" parent="1" vertex="1">
          <mxGeometry x="780" y="280" width="100" height="60" as="geometry" />
        </mxCell>
        <mxCell id="OY-_izu9chUP1zv7eODz-22" value="&lt;font style=&quot;font-size: 14px;&quot;&gt;Появляется жёлтый кружочек - категории доступ&lt;span style=&quot;background-color: initial;&quot;&gt;ны к выбору&lt;/span&gt;&lt;/font&gt;" style="whiteSpace=wrap;html=1;fillColor=#FFFFFF;dashed=1;" parent="1" vertex="1">
          <mxGeometry x="1430" y="370" width="120" height="90" as="geometry" />
        </mxCell>
        <mxCell id="OY-_izu9chUP1zv7eODz-27" value="" style="group" parent="1" vertex="1" connectable="0">
          <mxGeometry x="2453" y="43" width="370" height="560" as="geometry" />
        </mxCell>
        <mxCell id="OY-_izu9chUP1zv7eODz-28" value="" style="rounded=1;whiteSpace=wrap;html=1;" parent="OY-_izu9chUP1zv7eODz-27" vertex="1">
          <mxGeometry width="370" height="560" as="geometry" />
        </mxCell>
        <mxCell id="OY-_izu9chUP1zv7eODz-29" value="" style="rounded=0;whiteSpace=wrap;html=1;" parent="OY-_izu9chUP1zv7eODz-27" vertex="1">
          <mxGeometry x="20" y="40" width="330" height="480" as="geometry" />
        </mxCell>
        <mxCell id="OY-_izu9chUP1zv7eODz-30" value="" style="rounded=1;whiteSpace=wrap;html=1;" parent="OY-_izu9chUP1zv7eODz-27" vertex="1">
          <mxGeometry x="30" y="200" width="310" height="130" as="geometry" />
        </mxCell>
        <mxCell id="OY-_izu9chUP1zv7eODz-31" value="Ноябрь" style="rounded=1;whiteSpace=wrap;html=1;" parent="OY-_izu9chUP1zv7eODz-27" vertex="1">
          <mxGeometry x="200" y="244" width="120" height="60" as="geometry" />
        </mxCell>
        <mxCell id="OY-_izu9chUP1zv7eODz-32" value="&lt;font style=&quot;font-size: 14px;&quot;&gt;Кэшбэк&lt;/font&gt;" style="text;html=1;align=center;verticalAlign=middle;whiteSpace=wrap;rounded=0;" parent="OY-_izu9chUP1zv7eODz-27" vertex="1">
          <mxGeometry x="150" y="210" width="60" height="30" as="geometry" />
        </mxCell>
        <mxCell id="OY-_izu9chUP1zv7eODz-33" value="" style="triangle;whiteSpace=wrap;html=1;rotation=-180;" parent="OY-_izu9chUP1zv7eODz-27" vertex="1">
          <mxGeometry x="300" y="530" width="20" height="20" as="geometry" />
        </mxCell>
        <mxCell id="OY-_izu9chUP1zv7eODz-34" value="" style="ellipse;whiteSpace=wrap;html=1;aspect=fixed;fillColor=#00FF00;" parent="OY-_izu9chUP1zv7eODz-27" vertex="1">
          <mxGeometry x="300" y="249" width="10" height="10" as="geometry" />
        </mxCell>
        <mxCell id="71cIT_W7Prt0eCM6huFr-5" value="" style="rounded=0;whiteSpace=wrap;html=1;" parent="OY-_izu9chUP1zv7eODz-27" vertex="1">
          <mxGeometry x="20" y="490" width="330" height="30" as="geometry" />
        </mxCell>
        <mxCell id="71cIT_W7Prt0eCM6huFr-6" value="&lt;font size=&quot;3&quot;&gt;%&lt;/font&gt;" style="ellipse;whiteSpace=wrap;html=1;aspect=fixed;" parent="OY-_izu9chUP1zv7eODz-27" vertex="1">
          <mxGeometry x="160" y="490" width="30" height="30" as="geometry" />
        </mxCell>
        <mxCell id="OY-_izu9chUP1zv7eODz-35" value="&lt;font size=&quot;3&quot;&gt;4&lt;/font&gt;" style="ellipse;whiteSpace=wrap;html=1;aspect=fixed;" parent="1" vertex="1">
          <mxGeometry x="2413" y="42" width="40" height="40" as="geometry" />
        </mxCell>
        <mxCell id="OY-_izu9chUP1zv7eODz-36" value="&lt;font style=&quot;font-size: 14px;&quot;&gt;Выход из банка на главную страницу Озон&lt;/font&gt;" style="rounded=1;whiteSpace=wrap;html=1;dashed=1;" parent="1" vertex="1">
          <mxGeometry x="2703" y="633" width="120" height="60" as="geometry" />
        </mxCell>
        <mxCell id="OY-_izu9chUP1zv7eODz-37" value="" style="edgeStyle=orthogonalEdgeStyle;rounded=0;orthogonalLoop=1;jettySize=auto;html=1;strokeColor=#FF0000;" parent="1" source="OY-_izu9chUP1zv7eODz-33" target="OY-_izu9chUP1zv7eODz-36" edge="1">
          <mxGeometry relative="1" as="geometry" />
        </mxCell>
        <mxCell id="OY-_izu9chUP1zv7eODz-38" value="&lt;font style=&quot;font-size: 14px;&quot;&gt;4 -&amp;gt; Главная страница раздела &quot;Бонусы&quot; - пользователь утвердил категории с 20го числа текущего месяца и до первого числа следующего&lt;/font&gt;" style="text;html=1;align=center;verticalAlign=middle;whiteSpace=wrap;rounded=0;" parent="1" vertex="1">
          <mxGeometry x="2253" y="39" width="130" height="158" as="geometry" />
        </mxCell>
        <mxCell id="OY-_izu9chUP1zv7eODz-53" value="" style="group" parent="1" vertex="1" connectable="0">
          <mxGeometry x="3219" y="41" width="370" height="560" as="geometry" />
        </mxCell>
        <mxCell id="OY-_izu9chUP1zv7eODz-54" value="" style="rounded=1;whiteSpace=wrap;html=1;" parent="OY-_izu9chUP1zv7eODz-53" vertex="1">
          <mxGeometry x="1" width="370" height="560" as="geometry" />
        </mxCell>
        <mxCell id="OY-_izu9chUP1zv7eODz-55" value="" style="rounded=0;whiteSpace=wrap;html=1;" parent="OY-_izu9chUP1zv7eODz-53" vertex="1">
          <mxGeometry x="22" y="40" width="330" height="480" as="geometry" />
        </mxCell>
        <mxCell id="OY-_izu9chUP1zv7eODz-56" value="" style="rounded=1;whiteSpace=wrap;html=1;" parent="OY-_izu9chUP1zv7eODz-53" vertex="1">
          <mxGeometry x="32" y="200" width="310" height="130" as="geometry" />
        </mxCell>
        <mxCell id="OY-_izu9chUP1zv7eODz-57" value="Ноябрь" style="rounded=1;whiteSpace=wrap;html=1;" parent="OY-_izu9chUP1zv7eODz-53" vertex="1">
          <mxGeometry x="50" y="249" width="120" height="60" as="geometry" />
        </mxCell>
        <mxCell id="OY-_izu9chUP1zv7eODz-58" value="&lt;font style=&quot;font-size: 14px;&quot;&gt;Кэшбэк&lt;/font&gt;" style="text;html=1;align=center;verticalAlign=middle;whiteSpace=wrap;rounded=0;" parent="OY-_izu9chUP1zv7eODz-53" vertex="1">
          <mxGeometry x="152" y="210" width="60" height="30" as="geometry" />
        </mxCell>
        <mxCell id="OY-_izu9chUP1zv7eODz-59" value="" style="triangle;whiteSpace=wrap;html=1;rotation=-180;" parent="OY-_izu9chUP1zv7eODz-53" vertex="1">
          <mxGeometry x="302" y="530" width="20" height="20" as="geometry" />
        </mxCell>
        <mxCell id="OY-_izu9chUP1zv7eODz-60" value="" style="ellipse;whiteSpace=wrap;html=1;aspect=fixed;fillColor=#00FF00;" parent="OY-_izu9chUP1zv7eODz-53" vertex="1">
          <mxGeometry x="152" y="259" width="10" height="10" as="geometry" />
        </mxCell>
        <mxCell id="OY-_izu9chUP1zv7eODz-75" value="Декабрь" style="rounded=1;whiteSpace=wrap;html=1;fillColor=#999999;" parent="OY-_izu9chUP1zv7eODz-53" vertex="1">
          <mxGeometry x="205" y="250" width="120" height="60" as="geometry" />
        </mxCell>
        <mxCell id="71cIT_W7Prt0eCM6huFr-7" value="" style="rounded=0;whiteSpace=wrap;html=1;" parent="OY-_izu9chUP1zv7eODz-53" vertex="1">
          <mxGeometry x="22" y="490" width="330" height="30" as="geometry" />
        </mxCell>
        <mxCell id="71cIT_W7Prt0eCM6huFr-8" value="&lt;font size=&quot;3&quot;&gt;%&lt;/font&gt;" style="ellipse;whiteSpace=wrap;html=1;aspect=fixed;" parent="OY-_izu9chUP1zv7eODz-53" vertex="1">
          <mxGeometry x="162" y="490" width="30" height="30" as="geometry" />
        </mxCell>
        <mxCell id="OY-_izu9chUP1zv7eODz-61" value="&lt;font size=&quot;3&quot;&gt;5&lt;/font&gt;" style="ellipse;whiteSpace=wrap;html=1;aspect=fixed;" parent="1" vertex="1">
          <mxGeometry x="3181" y="40" width="40" height="40" as="geometry" />
        </mxCell>
        <mxCell id="OY-_izu9chUP1zv7eODz-62" value="&lt;font style=&quot;font-size: 14px;&quot;&gt;Выход из банка на главную страницу Озон&lt;/font&gt;" style="rounded=1;whiteSpace=wrap;html=1;dashed=1;" parent="1" vertex="1">
          <mxGeometry x="3471" y="631" width="120" height="60" as="geometry" />
        </mxCell>
        <mxCell id="OY-_izu9chUP1zv7eODz-63" value="" style="edgeStyle=orthogonalEdgeStyle;rounded=0;orthogonalLoop=1;jettySize=auto;html=1;strokeColor=#FF0000;" parent="1" source="OY-_izu9chUP1zv7eODz-59" target="OY-_izu9chUP1zv7eODz-62" edge="1">
          <mxGeometry relative="1" as="geometry" />
        </mxCell>
        <mxCell id="OY-_izu9chUP1zv7eODz-64" value="&lt;span style=&quot;font-size: 14px;&quot;&gt;5 -&amp;gt; Главная страница раздела &quot;Бонусы&quot; - с 1го числа следующего месяца кнопка выбора перемещается на место текущего месяца&lt;/span&gt;" style="text;html=1;align=center;verticalAlign=middle;whiteSpace=wrap;rounded=0;" parent="1" vertex="1">
          <mxGeometry x="3031" y="41" width="130" height="148" as="geometry" />
        </mxCell>
        <mxCell id="5UnHv6mz9iG_G4zbgbHd-1" value="&lt;font style=&quot;font-size: 18px;&quot;&gt;a&lt;/font&gt;" style="ellipse;whiteSpace=wrap;html=1;aspect=fixed;" parent="1" vertex="1">
          <mxGeometry x="800" y="240" width="40" height="40" as="geometry" />
        </mxCell>
        <mxCell id="5UnHv6mz9iG_G4zbgbHd-2" value="" style="shape=singleArrow;whiteSpace=wrap;html=1;" parent="1" vertex="1">
          <mxGeometry x="1490" y="280" width="100" height="60" as="geometry" />
        </mxCell>
        <mxCell id="5UnHv6mz9iG_G4zbgbHd-3" value="&lt;font style=&quot;font-size: 18px;&quot;&gt;b&lt;/font&gt;" style="ellipse;whiteSpace=wrap;html=1;aspect=fixed;" parent="1" vertex="1">
          <mxGeometry x="1510" y="240" width="40" height="40" as="geometry" />
        </mxCell>
        <mxCell id="5UnHv6mz9iG_G4zbgbHd-4" value="" style="shape=singleArrow;whiteSpace=wrap;html=1;" parent="1" vertex="1">
          <mxGeometry x="2935" y="282" width="100" height="60" as="geometry" />
        </mxCell>
        <mxCell id="5UnHv6mz9iG_G4zbgbHd-5" value="&lt;font style=&quot;font-size: 18px;&quot;&gt;d&lt;/font&gt;" style="ellipse;whiteSpace=wrap;html=1;aspect=fixed;" parent="1" vertex="1">
          <mxGeometry x="2955" y="242" width="40" height="40" as="geometry" />
        </mxCell>
        <mxCell id="5UnHv6mz9iG_G4zbgbHd-6" style="edgeStyle=orthogonalEdgeStyle;rounded=0;orthogonalLoop=1;jettySize=auto;html=1;exitX=0.5;exitY=1;exitDx=0;exitDy=0;entryX=0;entryY=0.75;entryDx=0;entryDy=0;" parent="1" source="OY-_izu9chUP1zv7eODz-7" target="OY-_izu9chUP1zv7eODz-22" edge="1">
          <mxGeometry relative="1" as="geometry" />
        </mxCell>
        <mxCell id="5UnHv6mz9iG_G4zbgbHd-7" value="&lt;font style=&quot;font-size: 14px;&quot;&gt;Если категории не были бы утверждены, кружок был бы жёлтым&lt;/font&gt;" style="whiteSpace=wrap;html=1;rounded=1;dashed=1;" parent="1" vertex="1">
          <mxGeometry x="3019" y="452" width="120" height="100" as="geometry" />
        </mxCell>
        <mxCell id="71cIT_W7Prt0eCM6huFr-9" value="&lt;font style=&quot;font-size: 14px;&quot;&gt;Раздел &quot;Бонусы&quot;&lt;/font&gt;" style="rounded=1;whiteSpace=wrap;html=1;dashed=1;" parent="1" vertex="1">
          <mxGeometry x="270" y="640" width="120" height="50" as="geometry" />
        </mxCell>
        <mxCell id="71cIT_W7Prt0eCM6huFr-10" value="" style="edgeStyle=orthogonalEdgeStyle;rounded=0;orthogonalLoop=1;jettySize=auto;html=1;" parent="1" source="71cIT_W7Prt0eCM6huFr-2" target="71cIT_W7Prt0eCM6huFr-9" edge="1">
          <mxGeometry relative="1" as="geometry" />
        </mxCell>
        <mxCell id="tL5eHbbr_D19sxUqMBeV-1" value="" style="shape=singleArrow;whiteSpace=wrap;html=1;" vertex="1" parent="1">
          <mxGeometry x="2179" y="280" width="100" height="60" as="geometry" />
        </mxCell>
        <mxCell id="tL5eHbbr_D19sxUqMBeV-2" value="&lt;font style=&quot;font-size: 18px;&quot;&gt;c&lt;/font&gt;" style="ellipse;whiteSpace=wrap;html=1;aspect=fixed;" vertex="1" parent="1">
          <mxGeometry x="2199" y="240" width="40" height="40" as="geometry" />
        </mxCell>
        <mxCell id="tL5eHbbr_D19sxUqMBeV-3" value="" style="group" vertex="1" connectable="0" parent="1">
          <mxGeometry x="1712" y="41" width="370" height="560" as="geometry" />
        </mxCell>
        <mxCell id="tL5eHbbr_D19sxUqMBeV-4" value="" style="rounded=1;whiteSpace=wrap;html=1;" vertex="1" parent="tL5eHbbr_D19sxUqMBeV-3">
          <mxGeometry width="370" height="560" as="geometry" />
        </mxCell>
        <mxCell id="tL5eHbbr_D19sxUqMBeV-5" value="" style="rounded=0;whiteSpace=wrap;html=1;" vertex="1" parent="tL5eHbbr_D19sxUqMBeV-3">
          <mxGeometry x="20" y="40" width="330" height="480" as="geometry" />
        </mxCell>
        <mxCell id="tL5eHbbr_D19sxUqMBeV-9" value="" style="triangle;whiteSpace=wrap;html=1;rotation=-180;" vertex="1" parent="tL5eHbbr_D19sxUqMBeV-3">
          <mxGeometry x="300" y="530" width="20" height="20" as="geometry" />
        </mxCell>
        <mxCell id="tL5eHbbr_D19sxUqMBeV-19" value="&lt;font style=&quot;font-size: 14px;&quot;&gt;Сохранить&lt;/font&gt;" style="rounded=1;whiteSpace=wrap;html=1;fillColor=#dae8fc;strokeColor=#6c8ebf;" vertex="1" parent="tL5eHbbr_D19sxUqMBeV-3">
          <mxGeometry x="230" y="460" width="108" height="49" as="geometry" />
        </mxCell>
        <mxCell id="tL5eHbbr_D19sxUqMBeV-23" value="" style="group" vertex="1" connectable="0" parent="tL5eHbbr_D19sxUqMBeV-3">
          <mxGeometry x="28" y="69" width="312" height="60" as="geometry" />
        </mxCell>
        <mxCell id="tL5eHbbr_D19sxUqMBeV-20" value="&lt;span style=&quot;white-space: pre;&quot;&gt;&#x9;&lt;/span&gt;&lt;font style=&quot;font-size: 14px;&quot;&gt;Категория 1&lt;/font&gt;" style="rounded=1;whiteSpace=wrap;html=1;align=left;" vertex="1" parent="tL5eHbbr_D19sxUqMBeV-23">
          <mxGeometry width="312" height="60" as="geometry" />
        </mxCell>
        <mxCell id="tL5eHbbr_D19sxUqMBeV-21" value="" style="ellipse;whiteSpace=wrap;html=1;aspect=fixed;fillColor=#d5e8d4;strokeColor=#82b366;" vertex="1" parent="tL5eHbbr_D19sxUqMBeV-23">
          <mxGeometry x="272" y="12.5" width="35" height="35" as="geometry" />
        </mxCell>
        <mxCell id="tL5eHbbr_D19sxUqMBeV-22" value="" style="verticalLabelPosition=bottom;verticalAlign=top;html=1;shape=mxgraph.basic.tick" vertex="1" parent="tL5eHbbr_D19sxUqMBeV-23">
          <mxGeometry x="279.5" y="20" width="20" height="20" as="geometry" />
        </mxCell>
        <mxCell id="tL5eHbbr_D19sxUqMBeV-24" value="" style="group" vertex="1" connectable="0" parent="tL5eHbbr_D19sxUqMBeV-3">
          <mxGeometry x="29" y="139" width="312" height="60" as="geometry" />
        </mxCell>
        <mxCell id="tL5eHbbr_D19sxUqMBeV-25" value="&lt;span style=&quot;white-space: pre;&quot;&gt;&#x9;&lt;/span&gt;&lt;font style=&quot;font-size: 14px;&quot;&gt;Категория 2&lt;/font&gt;" style="rounded=1;whiteSpace=wrap;html=1;align=left;" vertex="1" parent="tL5eHbbr_D19sxUqMBeV-24">
          <mxGeometry width="312" height="60" as="geometry" />
        </mxCell>
        <mxCell id="tL5eHbbr_D19sxUqMBeV-26" value="" style="ellipse;whiteSpace=wrap;html=1;aspect=fixed;fillColor=#d5e8d4;strokeColor=#82b366;" vertex="1" parent="tL5eHbbr_D19sxUqMBeV-24">
          <mxGeometry x="272" y="12.5" width="35" height="35" as="geometry" />
        </mxCell>
        <mxCell id="tL5eHbbr_D19sxUqMBeV-27" value="" style="verticalLabelPosition=bottom;verticalAlign=top;html=1;shape=mxgraph.basic.tick" vertex="1" parent="tL5eHbbr_D19sxUqMBeV-24">
          <mxGeometry x="279.5" y="20" width="20" height="20" as="geometry" />
        </mxCell>
        <mxCell id="tL5eHbbr_D19sxUqMBeV-28" value="" style="group" vertex="1" connectable="0" parent="tL5eHbbr_D19sxUqMBeV-3">
          <mxGeometry x="29" y="209" width="312" height="60" as="geometry" />
        </mxCell>
        <mxCell id="tL5eHbbr_D19sxUqMBeV-29" value="&lt;span style=&quot;white-space: pre;&quot;&gt;&#x9;&lt;/span&gt;&lt;font style=&quot;font-size: 14px;&quot;&gt;Категория 3&lt;/font&gt;" style="rounded=1;whiteSpace=wrap;html=1;align=left;" vertex="1" parent="tL5eHbbr_D19sxUqMBeV-28">
          <mxGeometry width="312" height="60" as="geometry" />
        </mxCell>
        <mxCell id="tL5eHbbr_D19sxUqMBeV-30" value="" style="ellipse;whiteSpace=wrap;html=1;aspect=fixed;fillColor=#d5e8d4;strokeColor=#82b366;" vertex="1" parent="tL5eHbbr_D19sxUqMBeV-28">
          <mxGeometry x="272" y="12.5" width="35" height="35" as="geometry" />
        </mxCell>
        <mxCell id="tL5eHbbr_D19sxUqMBeV-31" value="" style="verticalLabelPosition=bottom;verticalAlign=top;html=1;shape=mxgraph.basic.tick" vertex="1" parent="tL5eHbbr_D19sxUqMBeV-28">
          <mxGeometry x="279.5" y="20" width="20" height="20" as="geometry" />
        </mxCell>
        <mxCell id="tL5eHbbr_D19sxUqMBeV-38" value="" style="group" vertex="1" connectable="0" parent="tL5eHbbr_D19sxUqMBeV-3">
          <mxGeometry x="29" y="279" width="312" height="60" as="geometry" />
        </mxCell>
        <mxCell id="tL5eHbbr_D19sxUqMBeV-39" value="&lt;span style=&quot;white-space: pre;&quot;&gt;&#x9;&lt;/span&gt;&lt;font style=&quot;font-size: 14px;&quot;&gt;Категория 4&lt;/font&gt;" style="rounded=1;whiteSpace=wrap;html=1;align=left;" vertex="1" parent="tL5eHbbr_D19sxUqMBeV-38">
          <mxGeometry width="312" height="60" as="geometry" />
        </mxCell>
        <mxCell id="tL5eHbbr_D19sxUqMBeV-40" value="" style="ellipse;whiteSpace=wrap;html=1;aspect=fixed;" vertex="1" parent="tL5eHbbr_D19sxUqMBeV-38">
          <mxGeometry x="272" y="12.5" width="35" height="35" as="geometry" />
        </mxCell>
        <mxCell id="tL5eHbbr_D19sxUqMBeV-13" value="&lt;font size=&quot;3&quot;&gt;3&lt;/font&gt;" style="ellipse;whiteSpace=wrap;html=1;aspect=fixed;" vertex="1" parent="1">
          <mxGeometry x="1672" y="40" width="40" height="40" as="geometry" />
        </mxCell>
        <mxCell id="tL5eHbbr_D19sxUqMBeV-14" value="&lt;font style=&quot;font-size: 14px;&quot;&gt;Выход из банка на главную страницу Озон&lt;/font&gt;" style="rounded=1;whiteSpace=wrap;html=1;dashed=1;" vertex="1" parent="1">
          <mxGeometry x="1962" y="631" width="120" height="60" as="geometry" />
        </mxCell>
        <mxCell id="tL5eHbbr_D19sxUqMBeV-15" value="" style="edgeStyle=orthogonalEdgeStyle;rounded=0;orthogonalLoop=1;jettySize=auto;html=1;strokeColor=#FF0000;" edge="1" parent="1" source="tL5eHbbr_D19sxUqMBeV-9" target="tL5eHbbr_D19sxUqMBeV-14">
          <mxGeometry relative="1" as="geometry" />
        </mxCell>
        <mxCell id="tL5eHbbr_D19sxUqMBeV-16" value="&lt;font style=&quot;font-size: 14px;&quot;&gt;3 -&amp;gt; Экран области выбора кэшбэка (здесь на следующий месяц).&lt;/font&gt;" style="text;html=1;align=center;verticalAlign=middle;whiteSpace=wrap;rounded=0;" vertex="1" parent="1">
          <mxGeometry x="1530" y="41" width="130" height="79" as="geometry" />
        </mxCell>
        <mxCell id="tL5eHbbr_D19sxUqMBeV-18" style="edgeStyle=orthogonalEdgeStyle;rounded=0;orthogonalLoop=1;jettySize=auto;html=1;exitX=0.5;exitY=1;exitDx=0;exitDy=0;entryX=0.5;entryY=0;entryDx=0;entryDy=0;" edge="1" parent="1" source="OY-_izu9chUP1zv7eODz-57" target="5UnHv6mz9iG_G4zbgbHd-7">
          <mxGeometry relative="1" as="geometry" />
        </mxCell>
        <mxCell id="tL5eHbbr_D19sxUqMBeV-36" value="&lt;font style=&quot;font-size: 14px;&quot;&gt;Становится &quot;жмакаемой&quot; когда пользователь выбрал ВСЕ доступные категории&lt;/font&gt;" style="whiteSpace=wrap;html=1;rounded=1;dashed=1;" vertex="1" parent="1">
          <mxGeometry x="2124" y="450" width="136" height="105.5" as="geometry" />
        </mxCell>
        <mxCell id="tL5eHbbr_D19sxUqMBeV-37" value="" style="edgeStyle=orthogonalEdgeStyle;rounded=0;orthogonalLoop=1;jettySize=auto;html=1;" edge="1" parent="1" source="tL5eHbbr_D19sxUqMBeV-19" target="tL5eHbbr_D19sxUqMBeV-36">
          <mxGeometry relative="1" as="geometry" />
        </mxCell>
        <mxCell id="tL5eHbbr_D19sxUqMBeV-42" value="&lt;font style=&quot;font-size: 14px;&quot;&gt;&lt;b&gt;Экран 3 показан в качестве иллюстрации, поскольку интерфейс и логика те же, что и для выбора кэшбэка вообще.&lt;/b&gt;&lt;/font&gt;" style="text;html=1;align=center;verticalAlign=middle;whiteSpace=wrap;rounded=0;" vertex="1" parent="1">
          <mxGeometry x="1610" y="210" width="90" height="160" as="geometry" />
        </mxCell>
      </root>
    </mxGraphModel>
  </diagram>
</mxfile>
